<?xml version="1.0" encoding="UTF-8"?>
<svg width="1061" height="217.7" version="1.1" viewBox="0 0 1061 217.7" xmlns="http://www.w3.org/2000/svg">
 <defs>
  <style>.cls-1 {
        fill: #151515;
        fill-rule: evenodd;
      }</style>
 </defs>
 <path id="Sakepon" class="cls-1" d="m56.75 182.5c32 0 57.25-20.75 57.25-47.75 0-36.5-29.25-44-54.75-50.75-25.25-7.25-45.25-13-45.25-38.5 0-20.75 20.75-37.75 46.5-37.75 26 0 46.75 17 46.75 37.75h8c0-25-24-45.5-54.75-45.5-30.25 0-55 20.5-55 45.5 0 31.75 27 39 51.25 46 25.5 7.25 49.25 13 49.25 43.25 0 21.25-21.75 39.5-49.25 39.5-26.75 0-48.75-17.75-48.75-39.5h-8c0 26.5 25.5 47.75 56.75 47.75zm150.5 0c28.75 0 54-16.5 64.5-45h0.75v41h8v-136.2h-8v40h-0.75c-10.75-25.5-33.5-44-64.5-44a72.12 72.12 0 1 0-3e-3 144.2zm0-8.25c-35.75 0-64.75-28.75-64.75-64 0-35.75 29-64 64.75-64a64 64 0 0 1-3e-3 128zm110.2 4.5h8v-69.75h84.75v69.75h8v-77.75h-41.75l37.5-58.75h-9l-37.5 58.75h-42v-98h-8v175.8zm193.2 3.5a72.53 72.53 0 0 0 67.5-46h-8.75a64.5 64.5 0 0 1-123.2-23.75h137v-2.75c0-40-32.5-71.25-72.5-71.25s-72.5 31.25-72.5 71.25a72.55 72.55 0 0 0 72.5 72.5zm-64.25-77.75c2.5-33 30.5-58 64.25-58s61.75 25 64.25 58zm163.5 113.2h8.25v-78.75h0.75c10.5 25.5 33.25 44 64.5 44a71.97 71.97 0 0 0 72.25-72.25c0-39.5-32.25-71.75-72.25-71.75-29.25 0-54.25 16.25-64.5 44.75h-0.75v-41.25h-8.25v175.2zm73.5-42.75a63.9 63.9 0 0 1 0-127.8c35.5 0 64.25 28.25 64.25 63.5a64.07 64.07 0 0 1-64.25 64.25zm161.2 7.5c40 0 72.5-32.75 72.5-71.75 0-40-32.5-71.75-72.5-71.75s-72.5 31.75-72.5 71.75c-4e-3 39 32.5 71.75 72.5 71.75zm0-8c-35.5 0-64.5-29.25-64.5-63.75 0-35.75 29-63.75 64.5-63.75s64.5 28 64.5 63.75c-4e-3 34.5-29 63.75-64.5 63.75zm99.25 4.25h8v-128.2h100.8v128.2h8v-136.5h-116.8z"/>
</svg>
